<svg xmlns="http://www.w3.org/2000/svg" xmlns:xlink="http://www.w3.org/1999/xlink" version="1.0" x="0px" y="0px" viewBox="0 0 100 125" enable-background="new 0 0 100 100" xml:space="preserve"><path d="M94.75,32.4922981c-8.3883438-1.9673958-15.5175171-7.2005043-19.9755859-14.2848511  c-8.1594009,1.095705-16.4857101,1.6651344-24.9452705,1.6651344c-8.2291336,0-16.3325081-0.5383263-24.2789555-1.5761356  C21.0210838,25.4420567,13.7676497,30.6889095,5.25,32.5780067c6.7427282,1.6618614,13.630579,2.9553146,20.6404018,3.8581047  v45.3561707c2.4692459-5.6847076,6.8891582-10.3248062,12.4157696-13.0762787V48.1496658h23.3880234v20.5665359  c5.5266304,2.751564,9.9465218,7.3916626,12.4155998,13.076355V36.3917465  C81.1201706,35.4752502,88.0078278,34.1676903,94.75,32.4922981z"/><text x="0" y="115" fill="#000000" font-size="5px" font-weight="bold" font-family="'Helvetica Neue', Helvetica, Arial-Unicode, Arial, Sans-serif">Created by Alexander Skowalsky</text><text x="0" y="120" fill="#000000" font-size="5px" font-weight="bold" font-family="'Helvetica Neue', Helvetica, Arial-Unicode, Arial, Sans-serif">from the Noun Project</text></svg>